<svg width="1200" height="900" viewBox="0 0 1200 900" fill="none" xmlns="http://www.w3.org/2000/svg" role="img" aria-label="GLOBAL CZAR logo">
  <rect width="1200" height="900" fill="white"/>
  <defs>
    <linearGradient id="steel" x1="240" y1="110" x2="760" y2="640" gradientUnits="userSpaceOnUse">
      <stop stop-color="#FAFCFF"/>
      <stop offset=".25" stop-color="#B9C1CA"/>
      <stop offset=".56" stop-color="#293545"/>
      <stop offset=".84" stop-color="#EDF2F7"/>
      <stop offset="1" stop-color="#4B5563"/>
    </linearGradient>
    <linearGradient id="gold" x1="420" y1="245" x2="650" y2="585" gradientUnits="userSpaceOnUse">
      <stop stop-color="#FFF1A8"/>
      <stop offset=".34" stop-color="#D6A22B"/>
      <stop offset=".7" stop-color="#8E570D"/>
      <stop offset="1" stop-color="#F1C761"/>
    </linearGradient>
    <linearGradient id="ingot" x1="650" y1="330" x2="970" y2="500" gradientUnits="userSpaceOnUse">
      <stop stop-color="#F8FAFC"/>
      <stop offset=".36" stop-color="#8F9AA6"/>
      <stop offset=".68" stop-color="#252F3C"/>
      <stop offset="1" stop-color="#E5E7EB"/>
    </linearGradient>
  </defs>
  <g transform="translate(50 0)">
    <path d="M734 122C621 59 473 74 374 173c-132 132-132 347 0 479 100 100 251 115 366 47L632 591c-62 23-135 10-185-40-77-77-77-203 0-280 50-50 124-63 186-39l101-110Z" fill="url(#steel)" stroke="#111827" stroke-width="8"/>
    <path d="M629 241c-68-33-153-21-210 36-75 75-75 197 0 272 58 58 144 69 213 35l-91-89c-28 6-58-2-80-24-34-34-34-89 0-123 22-22 54-30 82-23l86-84Z" fill="url(#gold)" stroke="#7C4A08" stroke-width="7"/>
    <path d="M532 444h248v165l-82 73V526H532v-82Z" fill="url(#ingot)" stroke="#111827" stroke-width="8"/>
    <g stroke="#111827" stroke-width="6">
      <path d="M704 317 844 286l83 41-142 33-81-43Z" fill="url(#ingot)"/>
      <path d="M650 395 792 360l84 43-144 35-82-43Z" fill="url(#ingot)"/>
      <path d="M789 436 932 402l76 40-143 34-76-40Z" fill="url(#ingot)"/>
      <path d="M714 507 856 472l80 42-145 35-77-42Z" fill="url(#ingot)"/>
    </g>
  </g>
  <text x="115" y="742" fill="#071A2F" font-family="Arial Black, Arial, sans-serif" font-size="132" font-weight="900" letter-spacing="8">GLOBAL</text>
  <text x="345" y="845" fill="#A66B12" font-family="Arial Black, Arial, sans-serif" font-size="92" font-weight="900" letter-spacing="34">CZAR</text>
  <path d="M117 807h180M876 807h180" stroke="#A66B12" stroke-width="9"/>
  <text x="292" y="886" fill="#071A2F" font-family="Arial, sans-serif" font-size="27" font-weight="700" letter-spacing="10">GLOBAL METALLURGY. TRUSTED EXCELLENCE.</text>
</svg>
